G04*
G04 #@! TF.GenerationSoftware,Altium Limited,Altium Designer,19.1.5 (86)*
G04*
G04 Layer_Color=32896*
%FSLAX25Y25*%
%MOIN*%
G70*
G01*
G75*
%ADD144C,0.00039*%
D144*
X137262Y-32267D02*
X137262Y7402D01*
X-630945Y-32266D02*
X137262Y-32267D01*
X-630945Y-32266D02*
X-630945Y7500D01*
X-602598D01*
Y335453D01*
X-630945D02*
X-602598D01*
X-630945D02*
X-630945Y375214D01*
X-564705Y375214D01*
X-561161Y375214D01*
X-558403Y375214D01*
Y383091D01*
X-533403D01*
X-533403Y375214D01*
X-525433Y375214D01*
X-517559Y375214D01*
X-444331Y375215D01*
X-444229D01*
Y383091D01*
X-419229D01*
Y375215D02*
Y383091D01*
Y375215D02*
X-419134D01*
X-330157Y375215D01*
X-330056D01*
Y383091D01*
X-305056D01*
Y375215D02*
Y383091D01*
Y375215D02*
X-304961D01*
X-215984Y375216D01*
X-215883D01*
Y383091D01*
X-190883D01*
Y375215D02*
Y383091D01*
Y375215D02*
X-190787D01*
X82933Y375217D01*
Y368327D02*
Y375217D01*
Y368327D02*
X103405D01*
Y375217D01*
X137264Y375217D01*
X137264Y335453D02*
X137264Y375217D01*
X108917Y335453D02*
X137264D01*
X108917Y7500D02*
Y335453D01*
Y7500D02*
X137262D01*
Y7402D02*
Y7500D01*
M02*
