G04*
G04 #@! TF.GenerationSoftware,Altium Limited,Altium Designer,19.1.5 (86)*
G04*
G04 Layer_Color=32896*
%FSLAX25Y25*%
%MOIN*%
G70*
G01*
G75*
%ADD12C,0.00787*%
%ADD19C,0.00591*%
%ADD244C,0.01575*%
G36*
X66492Y-9248D02*
X62049D01*
Y-4053D01*
X66492D01*
Y-9248D01*
D02*
G37*
G36*
X75Y331106D02*
X-4368D01*
Y336301D01*
X75D01*
Y331106D01*
D02*
G37*
G36*
X83289Y78095D02*
X78095D01*
Y82537D01*
X83289D01*
Y78095D01*
D02*
G37*
%LPC*%
G36*
X65492Y-5053D02*
X63049D01*
Y-8248D01*
Y-5741D01*
X64501D01*
Y-6295D01*
X63259D01*
Y-6942D01*
X64501D01*
Y-8248D01*
X65492D01*
Y-5053D01*
D02*
G37*
G36*
X-925Y335301D02*
X-3368D01*
Y332106D01*
Y334613D01*
X-1916D01*
Y334059D01*
X-3158D01*
Y333412D01*
X-1916D01*
Y332106D01*
X-925D01*
Y335301D01*
D02*
G37*
G36*
X82289Y81537D02*
X81601D01*
Y80086D01*
X81048D01*
Y81327D01*
X80400D01*
Y80086D01*
X79094D01*
Y81537D01*
Y79094D01*
X82289D01*
Y81537D01*
D02*
G37*
%LPD*%
D12*
X63906Y76874D02*
Y76087D01*
Y76874D01*
D19*
X17658Y-3370D02*
X69626D01*
X13425Y-9823D02*
X67559D01*
Y-6750D01*
X69626D01*
Y-3447D01*
X-14823Y-3370D02*
X17658D01*
X-14823Y-7045D02*
Y-3348D01*
Y-7045D02*
X-12854D01*
Y-9801D02*
Y-7045D01*
Y-9823D02*
X13425D01*
X-24843Y336984D02*
X2551Y336984D01*
X-29075Y330532D02*
X551D01*
X551Y333681D02*
X551Y330532D01*
X551Y333681D02*
X2551D01*
Y336984D01*
X-32323D02*
X-24843Y336984D01*
X-32323Y333287D02*
Y336984D01*
Y333287D02*
X-30354D01*
Y330532D02*
Y333287D01*
Y330532D02*
X-29075D01*
X83973Y75618D02*
X83973Y274118D01*
Y280118D01*
X83473D02*
X83973D01*
X80472D02*
X83473D01*
X80472Y277118D02*
Y280118D01*
X77473Y277118D02*
X80472D01*
X77473Y77618D02*
Y277118D01*
Y77618D02*
X80472D01*
Y75618D02*
Y77618D01*
Y75618D02*
X83973D01*
D244*
X-176255Y344013D02*
X-176514Y344980D01*
X-177222Y345688D01*
X-178189Y345947D01*
X-179156Y345688D01*
X-179864Y344980D01*
X-180123Y344013D01*
X-179864Y343046D01*
X-179156Y342339D01*
X-178189Y342079D01*
X-177222Y342339D01*
X-176514Y343046D01*
X-176255Y344013D01*
X-192003D02*
X-192262Y344980D01*
X-192970Y345688D01*
X-193937Y345947D01*
X-194904Y345688D01*
X-195612Y344980D01*
X-195871Y344013D01*
X-195612Y343046D01*
X-194904Y342339D01*
X-193937Y342079D01*
X-192970Y342339D01*
X-192262Y343046D01*
X-192003Y344013D01*
X-184129D02*
X-184388Y344980D01*
X-185096Y345688D01*
X-186063Y345947D01*
X-187030Y345688D01*
X-187738Y344980D01*
X-187997Y344013D01*
X-187738Y343046D01*
X-187030Y342339D01*
X-186063Y342079D01*
X-185096Y342339D01*
X-184388Y343046D01*
X-184129Y344013D01*
X-290428D02*
X-290687Y344980D01*
X-291395Y345688D01*
X-292362Y345947D01*
X-293329Y345688D01*
X-294037Y344980D01*
X-294296Y344013D01*
X-294037Y343046D01*
X-293329Y342339D01*
X-292362Y342079D01*
X-291395Y342339D01*
X-290687Y343046D01*
X-290428Y344013D01*
X-306176D02*
X-306435Y344980D01*
X-307143Y345688D01*
X-308110Y345947D01*
X-309077Y345688D01*
X-309785Y344980D01*
X-310044Y344013D01*
X-309785Y343046D01*
X-309077Y342339D01*
X-308110Y342079D01*
X-307143Y342339D01*
X-306435Y343046D01*
X-306176Y344013D01*
X-298302D02*
X-298562Y344980D01*
X-299269Y345688D01*
X-300236Y345947D01*
X-301203Y345688D01*
X-301911Y344980D01*
X-302170Y344013D01*
X-301911Y343046D01*
X-301203Y342339D01*
X-300236Y342079D01*
X-299269Y342339D01*
X-298562Y343046D01*
X-298302Y344013D01*
X-404602D02*
X-404861Y344980D01*
X-405569Y345688D01*
X-406535Y345947D01*
X-407502Y345688D01*
X-408210Y344980D01*
X-408469Y344013D01*
X-408210Y343046D01*
X-407502Y342339D01*
X-406535Y342079D01*
X-405569Y342339D01*
X-404861Y343046D01*
X-404602Y344013D01*
X-420350D02*
X-420609Y344980D01*
X-421317Y345688D01*
X-422283Y345947D01*
X-423250Y345688D01*
X-423958Y344980D01*
X-424217Y344013D01*
X-423958Y343046D01*
X-423250Y342339D01*
X-422283Y342079D01*
X-421317Y342339D01*
X-420609Y343046D01*
X-420350Y344013D01*
X-412476D02*
X-412735Y344980D01*
X-413443Y345688D01*
X-414409Y345947D01*
X-415376Y345688D01*
X-416084Y344980D01*
X-416343Y344013D01*
X-416084Y343046D01*
X-415376Y342339D01*
X-414409Y342079D01*
X-413443Y342339D01*
X-412735Y343046D01*
X-412476Y344013D01*
X-518775Y344013D02*
X-519034Y344980D01*
X-519742Y345688D01*
X-520709Y345947D01*
X-521675Y345688D01*
X-522383Y344980D01*
X-522642Y344013D01*
X-522383Y343046D01*
X-521675Y342339D01*
X-520709Y342079D01*
X-519742Y342339D01*
X-519034Y343046D01*
X-518775Y344013D01*
X-534523D02*
X-534782Y344980D01*
X-535490Y345688D01*
X-536457Y345947D01*
X-537424Y345688D01*
X-538131Y344980D01*
X-538390Y344013D01*
X-538131Y343046D01*
X-537424Y342339D01*
X-536457Y342079D01*
X-535490Y342339D01*
X-534782Y343046D01*
X-534523Y344013D01*
X-526649D02*
X-526908Y344980D01*
X-527616Y345688D01*
X-528583Y345947D01*
X-529550Y345688D01*
X-530257Y344980D01*
X-530516Y344013D01*
X-530257Y343046D01*
X-529550Y342339D01*
X-528583Y342079D01*
X-527616Y342339D01*
X-526908Y343046D01*
X-526649Y344013D01*
X-184095Y344013D02*
X-180157D01*
X-191969D02*
X-188031D01*
X-298268D02*
X-294331D01*
X-306142D02*
X-302205D01*
X-412441D02*
X-408504D01*
X-420315D02*
X-416378D01*
X-526614Y344013D02*
X-522677D01*
X-534488D02*
X-530551D01*
M02*
