M48
;Layer_Color=9474304
;FILE_FORMAT=2:4
INCH,TZ
;TYPE=PLATED
T1F00S00C0.0079
T2F00S00C0.0118
T3F00S00C0.0157
T4F00S00C0.0197
T5F00S00C0.0512
T6F00S00C0.0984
T7F00S00C0.1220
;TYPE=NON_PLATED
T8F00S00C0.0276
T9F00S00C0.0472
T10F00S00C0.0630
T11F00S00C0.0650
%
T01
X-55742Y-372
Y415
X-55319Y2915
Y3476
X-52543Y3466
Y2905
X-51254Y4480
X-51116Y6616
X-51510
X-51904
X-52297
X-52691
X-53085
X-53478
X-53872
X-54266
X-54659
X-55053
X-55841
X-52297Y8781
X-52317Y9411
X-51756Y9392
X-52297Y10159
X-50654Y10396
X-49935Y6616
X-50998Y750
Y435
Y-1927
X-49925Y-1888
X-52789Y-1750
Y-1258
Y-766
X-53380
X-53970
X-54059Y-1839
Y-2026
X-46923Y-1898
X-46687
X-47573Y-1189
X-47573Y-57
X-47573Y1400
X-47868
X-48518Y1380
X-48163Y907
X-46785Y1980
X-46894Y4701
X-46982Y6616
X-47376
X-47770
X-48163
X-48557
X-49541
X-49758Y5799
X-49797Y3073
X-43902Y2915
Y3476
X-41126Y3466
Y2905
X-39846Y4480
X-39699Y6616
X-40093
X-40486
X-40880
X-41274
X-41667
X-42061
X-42455
X-42848
X-43242
X-43636
X-44423
X-45801
Y8388
Y8585
Y8781
Y10061
Y10258
Y10455
X-40880Y10159
X-40900Y9411
X-40358Y9411
X-40880Y8781
X-39236Y10317
X-38518Y6616
X-38124
X-38390Y5907
X-37140Y6616
X-36746
X-36352
X-35959
X-35565
X-34384
Y8289
Y8486
Y8683
Y10061
Y10258
Y10455
X-35476Y4701
X-35407Y2000
X-36156Y1400
X-36451
X-37100Y1380
X-36746Y907
X-36156Y-1189
X-35506Y-1898
X-35270
X-38508Y-1888
X-39581Y-1927
Y435
Y711
X-38341Y3053
X-42740Y-1878
Y-2055
X-31411Y-1996
Y-1809
X-29758Y-1848
X-29856Y-1553
X-28163Y-1927
X-27091Y-1888
X-26608Y-1848
X-26215
X-24738Y-1189
X-24089Y-1898
X-23852
X-19974Y-1888
Y-2075
X-21067Y2915
Y3476
X-21392Y6616
X-20604
X-20211
X-19817
X-19423
X-19030
X-22967
X-24148
X-24541
X-24935
X-25329
X-25722
X-26707
X-26904
X-27100
X-27297
X-28085
X-28478
X-28872
X-29266
X-29659
X-30053
X-30447
X-30841
X-31234
X-31628
X-32022
X-32809
X-32484Y3476
Y2915
X-29709Y2905
Y3466
X-28409Y4510
X-27031Y5799
X-26992Y3073
X-25683Y1380
X-25329Y907
X-23951Y1931
X-24059Y4701
X-22967Y8289
Y8486
Y8683
Y10061
Y10258
Y10455
X-27809Y10386
X-29463Y10159
X-29482Y9411
X-28931Y9421
X-29463Y8781
X-28163Y986
Y671
X-16746Y632
Y1459
X-14266Y1380
X-13715Y1400
X-13419
X-13990Y593
X-13321Y-1189
X-12671Y-1898
X-12435
X-14797Y-1848
X-15191
X-15673Y-1888
X-16746Y-1809
X-18439Y-1750
Y-1455
Y-1159
X-18291Y2905
Y3466
X-16982Y4510
X-17061Y6616
X-16667
X-15880
X-15683
X-15486
X-15289
X-14305
X-13911
X-13518
X-13124
X-12730
X-11549
Y8388
Y8585
Y8781
Y10061
Y10258
Y10455
X-8006
Y10947
X-7268Y9923
X-6854
X-7041Y9697
X-7612Y9579
X-7563Y9283
X-7858Y9333
X-7819Y9018
X-8124Y9057
X-8104Y8752
X-6707Y8634
X-6470Y8752
X-6136Y9096
X-6874Y8004
X-6378Y6801
X-5984Y6683
X-5669
X-5709Y6998
X-5545Y7305
X-5250Y7600
X-4955Y7896
X-4758Y8191
X-4754Y6831
X-4502Y6616
X-4187Y6675
X-4157Y7148
X-3508Y6400
X-3248Y6339
X-3085Y6557
X-3898Y5266
X-4409Y5423
X-4331Y4951
X-4606Y4754
X-4803Y4518
X-5236Y4281
Y5226
X-5748Y5069
X-6142Y5069
X-6457Y5266
X-6772Y5384
X-7008Y5226
X-7244Y5384
X-7480Y5266
X-6181Y5581
X-5778Y5472
X-5906Y5935
X-5551Y5856
X-6142Y4124
X-5984Y3927
X-7008Y2667
X-7357Y3005
X-7573Y3221
X-8409Y3496
X-8774Y3476
X-9148
X-9350Y3750
X-8957Y3819
X-8593Y3789
X-8134Y3782
X-10000Y3848
Y4085
Y4321
Y3612
Y3376
Y3140
Y2904
Y2667
X-11648Y2974
Y3368
Y3762
Y4156
X-12642Y4701
X-12583Y2020
X-15594Y3063
X-15654Y5868
X-17455Y6616
X-17848
X-18242
X-18636
X-18045Y8781
X-18065Y9411
X-17524Y9411
X-18045Y10159
X-16333Y10386
X-9778Y7207
Y6715
X-9285Y5730
Y5238
Y4746
X-8794Y6055
X-10157Y-197
X-9222Y-1703
X-9852Y-2431
X-8337Y-1201
X-7175Y-2569
X-5989Y-2185
X-3425Y-2569
X-3583Y1181
X-3898Y1004
X-4134Y1171
X-4439Y1004
X-5348Y996
X-4555Y1955
X-4716Y2115
X-4409Y2244
X-4240Y1888
X-4079Y2048
X-3673Y2435
X-3513Y2595
X-3970Y2778
X-3774Y3270
X-3140Y3356
X-3518Y9500
X-3258Y9872
X-4187Y10189
X-4571Y10209
X-4256Y10543
X-4089Y10819
X-4443Y9421
X-2530Y9764
X-2278Y10110
X-2012Y10268
X-1766Y10356
X276Y9764
X728Y8829
X-610Y8878
X-551Y7244
X-1737Y7719
X-1624Y5728
X-1844Y5661
X-2022Y5425
X-1371Y5798
X-1210Y5637
X-292Y5088
X-16Y4370
X705Y5671
X1789Y5266
X2289
X2789
X3289
X3366Y6506
X3553
X4508Y5994
X5020
X5531
X6644Y6004
X7156
X7667
X7923Y5600
X7411
X6900
X6936Y6898
Y7173
X6799Y7036
X6651Y7173
Y6888
X7094Y7032
X7251Y6898
Y7173
X7389Y7036
X7527Y7173
Y6888
X8573Y6886
Y7171
X8721Y7033
X8859Y6896
Y7171
X9016Y7030
X9174Y6896
X9311Y7033
X9174Y7171
X9449Y7171
Y6886
X9656Y6201
X9413Y5551
X10053Y5551
X10083Y3514
X9167Y3622
X7667Y3691
X7156
X6644
X6742Y2618
X6545Y2461
X6352Y2630
X6156Y2472
X5246Y2421
X5049Y2579
X4862Y2421
X4537Y2411
X4148Y2394
X3500Y1506
X3500Y500
Y0
X3000
X2500
X2000
X1500
X1000
X500
X0
X-500
X-1000
Y500
X-500
X0
X500
X1000
X1500
X2000
X2500
X3000
X4000
Y0
X4500Y-0
X5000Y0
Y500
X5500
Y0
X6000
Y500
X6500
Y0
X6299Y-591
X5709Y-886
X5500Y-1335
X5000
X4500
X4000Y-1335
Y-1835
X4500
X5000
X5500
X6000
X6500
Y-1335
X6000Y-1335
X5413Y-492
X4429
X4724Y-886
X3642Y-689
X3346Y-591
X3051Y-689
X2756Y-591
X2461Y-689
X2165Y-591
X1870Y-689
X1575Y-591
X1280Y-689
X984Y-591
X699Y-738
X404Y-640
X108Y-738
X-187Y-640
X0Y-1335
X-500
X-1000
Y-1835
X-500
X0
X500
X1000
X1500
X2000
X2500
X3000
X3500
Y-1335
X3000
X2500
X2000
X1500
X1000
X500
X-1839Y-1199
X-1986Y-1337
X-2124Y-1474
X-1848Y-1474
X-1982Y-1632
X-1848Y-1789
X-2124
X-1986Y-1927
X-2124Y-2075
X-1839
X-2124Y-1199
X-2874Y-1427
X-2124Y-108
Y177
X-1848
X-1986Y39
X-1839Y-108
X-1982Y335
X-1848Y492
X-1986Y630
X-2124Y492
X-2071Y2443
X-1811Y2195
X-1555Y2303
X630Y1998
X2234Y3366
X2736Y3376
X3169Y3396
X4500Y500
X7341Y455
X7478Y593
X7616Y455
X7626Y730
X7341
X7482Y297
X7616Y140
X7341
X7478Y2
X7341Y-146
X7626
X7626Y-1199
X7478Y-1337
X7341Y-1474
X7616Y-1474
X7482Y-1632
X7616Y-1789
X7341
X7478Y-1927
X7341Y-2075
X7626
X7341Y-1199
X8150Y1112
X8071Y2451
X9055Y2028
X9990Y1486
X8356Y4528
X8769Y8012
X9169
Y9012
X8769
X8569Y9512
X8769Y10012
X9169
Y11012
X8769
X8569Y10512
X7569
X7319Y10012
X6969
Y9012
X7319
X7569Y8512
X7319Y8012
X6969
X4873Y8012
X4986Y7404
Y6813
Y8978
Y9569
Y10159
Y10750
X5863Y10512
Y9512
X7569
X7319Y11012
X6969
X10275Y10512
Y9512
X8569Y8512
X1640Y9864
X925Y7431
X3500Y-2846
X3608Y12522
X4002
X4593
X4986
Y11931
Y11341
X5863Y11512
Y12512
Y13512
Y14512
Y15512
Y16512
Y17512
Y18512
Y19512
Y20512
Y21512
Y22512
Y23512
Y24512
X6969Y25012
X7319
X7569Y24512
X7319Y24012
X6969
Y23012
X7319
X7569Y22512
X7319Y22012
X6969
Y21012
X7319
X7569Y21512
Y20512
X7319Y20012
X6969
Y19012
X7319
X7569Y19512
X8569
X8769Y20012
X9169
Y19012
X8769
X8569Y18512
X8769Y18012
X9169
Y17012
X8769
X8569Y17512
Y16512
X8769Y16012
X9169
Y15012
X8769
X8569Y14512
X8769Y14012
X9169
Y13012
X8769
X8569Y13512
Y12512
X8769Y12012
X9169
X8569Y11512
X7569
X7319Y12012
X6969
Y13012
X7319
X7569Y12512
Y13512
X7319Y14012
X6969
Y15012
X7319
X7569Y14512
Y15512
X7319Y16012
X6969
Y17012
X7319
X7569Y16512
Y17512
X7319Y18012
X6969
X7569Y18512
X10275
Y17512
Y16512
Y15512
Y14512
Y13512
Y12512
Y11512
X8569Y15512
X4162Y15186
X3432Y15207
X3787Y14406
X951Y13703
Y13407
Y13014
Y12719
X-33
Y13014
X-329Y12128
X-1844Y12699
X-1874Y12886
X-2012Y12768
X-2986Y11439
X-2494Y14982
X-1608Y14687
X-33
X-2396Y17049
X-1244Y18929
X-1047
X-850Y18939
X-427Y19510
Y19904
Y20297
Y20691
X65
Y20297
Y19904
Y19510
X1738Y19904
X2132Y20297
X2526Y20691
X1443Y21380
Y21675
Y22364
Y22659
X1059Y23535
X1541Y24234
X1837
X459
X163
X-526
X-821
X-2002
X-2297
X-1490Y23555
X-1805Y22659
Y22364
Y21675
Y21380
X-3006Y21006
X-2120Y26045
X-988Y26557
X843Y26331
Y25799
X4789Y26400
X5161Y25511
X6266Y26400
X6969Y26012
X7319
X7569Y25512
X8569
X8769Y25012
X9169
Y24012
X8769
X8569Y24512
Y23512
X8769Y23012
X9169
Y22012
X8769
X8569Y22512
Y21512
X8769Y21012
X9169
X8569Y20512
X10275
Y19512
Y21512
Y22512
Y23512
Y24512
X9169Y26012
X8769
X8569Y26512
X7569
Y23512
X-3124Y23447
Y23102
X-3124Y24815
Y25159
Y26439
X-4994Y25720
X-5594Y25730
X-6215Y25740
X-6815Y25720
X-6510Y24667
X-5909Y24657
X-5299Y24638
X-4679Y24648
X-4659Y21380
X-5250
X-5939
X-6530
Y20593
X-5939
X-5250
X-4659
X-3675
X-3409Y21006
X-3213
X-3675Y21380
X-3409Y20002
Y19815
X-3400Y19628
X-3478Y15376
Y14982
Y14589
X-3124Y12659
X-3410Y12129
X-6628Y12325
X-6520Y12768
X-6303
X-6746
X-6628Y13211
X-7218
X-7809
X-8400
X-8990
X-9581
Y12325
X-8990
X-8400
X-7809
X-7218
X-7317Y15219
X-6707
X-6096
X-7927
X-8537
X-9148
X-9758
X-11549Y15474
Y15671
Y15868
Y14195
Y13998
Y13801
X-12730Y12325
X-13124
X-13911
X-14305
X-15486
X-15880
X-16274
X-16667
X-17061
X-17455
X-17848
X-18242
X-18636
X-17199Y11409
X-18045Y14096
Y15671
X-17848Y17443
X-17455
X-17061
X-16667
X-16274
X-15880
X-15486
X-14305
X-13911
X-13518
X-12927
X-12533
X-11549Y19018
Y19215
Y19411
Y20888
Y21085
Y21281
X-10270Y21577
Y21970
Y22364
Y22758
Y23250
Y23841
X-9974Y24333
X-9581
X-9187
X-8793
X-8400
X-8006
X-8026Y24864
X-8380
X-8656
X-8931
X-9246
X-9581Y24854
X-9925
X-10270Y24726
Y25219
X-11648Y25533
Y25878
X-11480Y25720
Y26055
X-11657Y26213
X-11500Y26400
X-11943Y24530
Y24234
Y23939
Y23644
X-12730Y22561
X-12927
X-13518
X-15486
X-15880
X-16274
X-16667
X-17061
X-17455
X-17848
X-18242
X-18636
X-18045Y20789
Y19411
X-18242Y17443
X-18636
X-9955Y21272
X-9718Y21301
X-9285Y21173
X-9079Y21331
X-8852Y21173
X-8616Y21311
X-8173Y21242
X-7907Y21252
X-19030Y22561
X-19423
X-19817
X-20211
X-20604
X-20998
X-21392
X-24148
X-24344
X-24935
X-26904
X-27297
X-27691
X-28085
X-28478
X-28872
X-29266
X-29659
X-30053
X-30447
X-30841
X-31234
X-31628
X-32022
X-32415
X-32809
X-31431Y24530
X-31441Y25386
X-30565Y24333
X-29463Y20789
Y19411
X-29266Y17443
X-28872
X-28478
X-28085
X-27691
X-27297
X-26904
X-25722
X-25329
X-24935
X-24344
X-23951
X-22967Y15967
Y15770
Y15573
Y14096
Y13900
Y13703
X-24148Y12325
X-24541
X-25329
X-25722
X-26904
X-27297
X-27691
X-28085
X-28478
X-28872
X-29266
X-29659
X-30053
X-30447
X-30841
X-31234
X-32022
X-32415
X-32809
X-28616Y11409
X-29463Y14096
Y15671
X-29659Y17443
X-30053
X-30447
X-30841
X-31234
X-32022
X-32415
X-32809
X-21392
X-20998
X-20604
X-19817
X-19423
X-19030
Y12325
X-19423
X-19817
X-20604
X-20998
X-21392
X-22967Y19018
Y19215
Y19411
Y20888
Y21085
Y21281
X-23075Y25533
Y25878
X-22907Y25720
Y26055
X-23085Y26213
X-22927Y26400
X-20152Y25366
X-20014Y24530
X-19138Y24333
X-34472Y25533
Y25878
X-34305Y25720
Y26055
X-34482Y26213
X-34325Y26400
X-35565Y22561
X-35762
X-36352
X-38321
X-38715
X-39108
X-39502
X-39896
X-40289
X-40683
X-41077
X-41470
X-41864
X-42258
X-42652
X-43045
X-43439
X-43833
X-44226
X-46982
X-47179
X-47770
X-49738
Y17443
X-48557
X-48163
X-47770
X-47179
X-46785
X-44226
X-43833
X-43439
X-42652
X-42258
X-41864
X-41470
X-41077
X-40683
X-40289
X-39896
X-39502
X-39108
X-38715
X-38321
X-37140
X-36746
X-36352
X-35762
X-35368
X-34384Y15868
Y15671
Y15474
Y14195
Y13998
Y13801
X-35565Y12325
X-35959
X-36746
X-37140
X-38321
X-38715
X-39108
X-39502
X-39896
X-40289
X-40683
X-41077
X-41470
X-41864
X-42258
X-42652
X-43439
X-43833
X-44226
X-46982
X-47376
X-48163
X-48557
X-49738
X-45801Y13900
Y14096
Y14293
Y15376
Y15573
Y15770
Y19116
Y19313
Y19510
Y20691
Y20888
Y21085
X-45909Y25533
Y25878
X-45742Y25720
Y26055
X-45919Y26213
X-45762Y26400
X-42868Y25386
X-42848Y24530
X-41963Y24323
X-40880Y20789
Y19411
Y15671
Y14096
X-40033Y11409
X-34384Y19116
Y19313
Y19510
Y20691
Y20888
Y21085
X-50132Y22561
X-50526
X-50919
X-51313
X-51707
X-52100
X-52494
X-52888
X-53281
X-53675
X-54069
X-54463
X-54856
X-55250
X-55644
X-54266Y24530
X-54276Y25366
X-53380Y24333
X-52297Y20789
Y19411
X-52100Y17443
X-51707
X-51313
X-50919
X-50526
X-50132
X-52494
X-52888
X-53281
X-53675
X-54069
X-54856
X-55250
X-55644
X-52297Y15671
Y14096
X-52100Y12325
X-51707
X-51313
X-50919
X-50526
X-50132
X-51451Y11409
X-52494Y12325
X-52888
X-53281
X-53675
X-54069
X-54856
X-55250
X-55644
X-54157Y27226
X-54069Y27581
X-53774
X-54364Y27679
X-51805Y27285
X-50722Y27778
X-51244Y29254
X-51441
X-51146Y30238
X-50791
X-50457
Y30730
X-50791Y30720
X-51146Y30730
Y31222
X-50791
X-50457
X-51244Y32206
X-51441
X-51884Y37049
X-51884Y37325
X-52888
X-52878Y37049
X-56372
X-56362Y37325
X-57071Y37187
X-46437Y37116
X-45654Y37177
X-44945Y37049
Y37325
X-41411Y37315
X-41402Y37049
X-40467
Y37325
X-39754Y36821
X-36624Y36791
X-35778Y35778
X-34862Y37116
X-34482Y32246
X-35033Y31035
X-34482Y30445
Y29825
Y29204
X-35831Y29244
X-36362
X-36254Y27679
X-35860
X-36648
X-37041
X-37435
X-37829
X-38222
X-39305
X-40388Y27285
X-42356Y27581
X-42652
X-42947Y27679
X-43242
X-43537
X-43833
X-44128
X-44423
X-42740Y27226
X-40024Y29254
X-39827
X-39728Y30238
X-39374
X-39039
Y30730
X-39374Y30720
X-39728Y30730
Y31222
X-39374
X-39039
X-39827Y32206
X-40024
X-37809Y30435
X-37317
X-45900Y30445
Y29825
Y29204
X-47248Y29244
X-47780
X-47671Y27679
X-48065
X-48459
X-48852
X-49246
X-49640
X-47278
X-46451Y31035
X-45900Y32246
X-48734Y30435
X-49226
X-33006Y27679
X-32711
X-32415
X-32120
X-31825
X-31530
X-31234Y27581
X-30939
X-31323Y27226
X-28970Y27285
X-27888Y27778
X-26805Y27679
X-26411
X-26018
X-25624
X-25230
X-24837
X-24443
X-24413Y29244
X-24945
X-23065Y29204
Y29825
Y30445
X-23616Y31035
X-23065Y32246
X-25900Y30435
X-26392
X-27622Y30238
X-27957
X-28311
Y30730
X-27957Y30720
X-27622Y30730
Y31222
X-27957
X-28311
X-28409Y32206
X-28606
Y29254
X-28409
X-21589Y27679
X-21293
X-20998
X-20703
X-20407
X-20112
X-19817Y27581
X-19522
X-19906Y27226
X-18685Y37049
X-18675Y37335
X-22110Y37325
X-22120Y37049
X-22819Y37187
X-26181Y36821
X-29059Y37049
Y37325
X-29488Y36791
X-30073Y37049
X-30063Y37325
X-33528
X-33537Y37049
X-34236Y37187
X-17612Y37325
X-17602Y37049
X-17189Y32206
X-16992
X-16894Y31222
X-16539
X-16205
Y30730
X-16539Y30720
X-16894Y30730
Y30238
X-16539
X-16205
X-14974Y30435
X-14482
X-13528Y29244
X-12996
X-11648Y29204
Y29825
Y30445
X-12199Y31035
X-11648Y32246
X-10860Y34766
Y35159
X-10708Y36838
X-10486Y36774
X-10811Y37039
X-11461Y37206
X-12323Y37018
X-12785Y35364
X-13051Y35089
X-13307Y34813
X-9974Y36439
X-8941Y37207
X-6421
X-4955Y36439
X-3892Y37207
X-3882Y34776
X-3596
X-3734Y34628
X-3596Y34490
X-3872
X-3738Y34333
X-3872Y34175
X-3734Y34037
X-3596Y34175
Y33900
X-3882
Y32846
X-3596
X-3734Y32699
X-3872Y32561
X-3596
X-3738Y32404
X-3872Y32246
X-3596
X-3734Y32108
X-3596Y31970
X-3882
X-4069Y30337
X-5250
Y29844
Y29254
Y28663
X-5276Y28120
X-5270Y26970
X-5476Y26970
X-5063Y26980
X-3124Y26872
X-3183Y28073
Y28299
Y28535
X-7612Y28663
X-8793Y29057
X-9187Y29451
X-9581Y29844
X-9187Y30337
X-8498
X-7809
X-9778Y28663
X-10171Y29057
X-9173Y27972
X-9108Y26970
X-9305
X-8911
X-13026Y27679
X-13419
X-13813
X-14207
X-14600
X-14994
X-15388
X-16470Y27778
X-17553Y27285
X-17189Y29254
X-16992
X-2750Y30691
Y30917
Y31154
Y31400
Y31606
X-2248Y33142
X-2250Y33368
X-2248Y33594
X-1736Y33585
Y33368
Y33132
X-1250Y33053
X-1250Y33368
X-1000
X-750
X-500
X-250
Y33053
X-750
X-750Y33698
X-1250Y33698
X-250Y33698
X596Y33890
X882
X744Y34028
X606Y34165
X882
X740Y34323
X606Y34480
X882
X744Y34618
X882Y34766
X596
X1591Y34825
X1876
Y35100
X1600
X1738Y34963
X1734Y35258
X1600Y35415
X1876
X1738Y35553
X1876Y35701
X1591
X557Y35947
X-230
X-821
X-1510
X-2750Y35986
Y35740
Y35504
Y35258
Y35047
X-1569Y37335
X-1067Y37128
X-565Y36921
Y37335
X594Y32846
X880
X742Y32699
X880Y32561
X604
X738Y32404
X604Y32246
X742Y32108
X880Y32246
Y31970
X594
X2555Y32758
X2761Y32887
X2988Y32758
X3195Y32887
X3391Y32750
X3697Y32896
X3894Y32748
X4091Y32906
X4287Y32748
X4484Y32906
X5045Y32856
X6069Y34815
X6354
Y35091
X6079
X6217Y34953
X6213Y35248
X6079Y35406
X6354
X6217Y35543
X6354Y35691
X6069
X6896Y35819
X7506Y36469
X7978Y33024
X8156Y33033
X8628Y30799
X7126Y30780
X7251Y28640
X7389Y28502
X7251Y28364
X7527Y28355
Y28640
X7094Y28498
X6936Y28364
Y28640
X6799Y28502
X6651Y28640
Y28355
X5577Y28368
Y28073
Y26793
X4806Y26968
X4494Y27679
X4441Y28420
X5380Y30041
X2437Y30858
X1531Y28407
X833Y27856
Y27581
Y27344
X667Y27463
X508Y27581
Y27344
X232Y27354
X222Y27581
X65Y27463
X-102Y27571
Y27344
X-378
Y27581
Y27856
Y28093
X-537Y27974
X-703Y28093
Y27856
X-693Y27581
X-703Y27344
X-537Y27463
X-93Y27856
Y28093
X65Y27974
X222Y28093
Y27856
X508
Y28093
X667Y27974
X1571Y27049
X-1461Y27846
X-2484Y27630
Y27010
X6969Y27012
X7319
X7569Y27512
X8569
X8769Y27012
X9169
X9171Y28355
X9309Y28492
X9171Y28630
X9446Y28630
Y28345
X9013Y28488
X8856Y28355
Y28630
X8718Y28492
X8570Y28630
Y28345
T02
X-52031Y-1672
Y-1435
X-52465Y415
X-52661
X-52671Y632
X-52465Y641
Y848
X-52661
X-53104Y1498
X-53636Y1695
X-54335Y1153
X-52012Y1498
X-52051Y2905
X-51549
X-49925Y2354
X-50998Y5125
X-51490
X-53931Y5267
X-55083Y5671
X-55811Y3033
Y2797
X-54226Y9136
Y9667
X-52858Y9411
X-49768Y9815
X-49236
Y9204
X-48567Y8358
Y7827
X-47986Y8673
X-47992Y10371
X-47987Y10986
X-48606Y10996
Y10464
X-46697Y10454
Y10986
X-42809Y9667
Y9136
X-41441Y9411
X-38350Y9815
X-37819
Y9204
X-37150Y8358
Y7827
X-36569Y8673
X-36574Y10371
X-36569Y10986
X-37189Y10996
Y10464
X-35280Y10454
Y10986
X-35476Y5184
X-35476Y4209
X-35476Y3727
X-37602Y3786
Y5125
X-39581
X-40073
X-40132Y2905
X-40634
X-40594Y1498
X-41687
X-42218Y1695
X-42917Y1153
X-41244Y848
X-41047
Y641
X-41254Y632
X-41244Y415
X-41047
X-40614Y-1435
Y-1672
X-38498Y-1189
X-38006Y-1170
X-37002Y-1189
X-35634Y-1199
X-34581Y-185
X-37632Y533
X-37632Y1380
X-38467Y1391
X-38508Y2354
X-44394Y2797
Y3033
X-46894Y3727
X-46894Y4209
X-46894Y5184
X-49020Y5125
Y3786
X-49049Y1380
X-49049Y533
X-49884Y1391
X-49915Y-1189
X-49423Y-1170
X-48419Y-1189
X-47051Y-1199
X-45998Y-185
X-43665Y5671
X-42514Y5267
X-32248Y5671
X-31096Y5267
X-28656Y5125
X-28163
X-26185
Y3786
X-24059Y3727
X-24059Y4209
X-24059Y5184
X-20831Y5671
X-19679Y5267
X-19384Y1695
X-18852Y1498
X-20083Y1153
X-21559Y2797
Y3033
X-23163Y-185
X-24217Y-1199
X-25585Y-1189
X-26589Y-1170
X-27081Y-1189
X-29197Y-1435
Y-1672
X-29630Y415
X-29827
X-29837Y632
X-29630Y641
Y848
X-29827
X-30270Y1498
X-30801Y1695
X-31500Y1153
X-29177Y1498
X-29217Y2905
X-28715
X-27091Y2354
X-27050Y1391
X-26215Y1380
X-26215Y533
X-25732Y7827
Y8358
X-25152Y8673
X-25157Y10371
X-25152Y10986
X-25772Y10996
Y10464
X-26402Y9815
X-26933
X-26402Y9204
X-23862Y10454
Y10986
X-19974Y9667
Y9136
X-30024Y9411
X-31392Y9667
Y9136
X-32976Y3033
Y2797
X-17799Y2905
X-17297
X-17760Y1498
X-18213Y848
X-18409
X-18419Y632
X-18213Y641
Y415
X-18409
X-17780Y-1435
Y-1672
X-15663Y-1189
X-15171Y-1170
X-14167Y-1189
X-12799Y-1199
X-11746Y-185
X-14797Y533
X-14797Y1380
X-15632Y1391
X-15673Y2354
X-14768Y3786
Y5125
X-16746
X-17238
X-12642Y5184
X-12642Y4209
X-12642Y3727
X-14315Y7827
Y8358
X-13734Y8673
X-13740Y10371
X-13735Y10986
X-14354Y10996
Y10464
X-14984Y9815
X-15516
X-14984Y9204
X-12445Y10454
Y10986
X-18606Y9411
X852Y6734
X1108
X1384
X2102Y6705
X2358
X2614
X3318Y8927
X2860Y12236
X2860Y12728
X987Y14891
X-901Y14956
Y15488
X-902Y14300
X-902Y13769
X872Y17994
X705Y18161
X695Y18398
X-14364Y18634
X-14394Y19175
X-13734Y19391
X-13046Y20100
X-12849Y21065
Y21596
X-13739Y21636
Y21015
X-15526Y20376
Y19844
X-16146
X-16953Y23643
X-17445Y24352
X-18331Y24332
X-18626Y25248
X-17061Y25317
X-16382Y25110
X-15752
X-15122
X-15112Y24421
X-15752Y24441
X-16382Y24460
X-13459Y23919
X-13439Y25750
X-13734Y16399
X-13725Y15789
X-12898Y15838
X-12888Y16370
X-13124Y14864
X-13715Y14145
X-14394Y13919
X-14349Y13388
X-15526Y14588
Y15120
X-16146Y14588
X-17730Y11409
X-19974Y14588
Y15120
X-19974Y19844
Y20376
X-21146Y23201
Y23821
Y24441
Y25061
X-21156Y25681
X-21195Y26301
X-24856Y25750
X-24876Y23919
X-26530Y24421
X-27169Y24441
X-27799Y24460
Y25110
X-27169
X-26539
X-28478Y25317
X-28862Y24352
X-29748Y24332
X-30043Y25248
X-32563Y25061
Y24441
Y23821
Y23201
X-32573Y25681
X-32612Y26301
X-28370Y23643
X-27563Y19844
X-26943
Y20376
X-25811Y19175
X-25782Y18634
X-25152Y19391
X-24463Y20100
X-24266Y21065
Y21596
X-25157Y21636
Y21015
X-25152Y16399
X-25142Y15789
X-24315Y15838
X-24305Y16370
X-24542Y14864
X-25132Y14145
X-25811Y13919
X-25767Y13388
X-26943Y14588
Y15120
X-27563Y14588
X-31392
Y15120
X-31392Y19844
Y20376
X-29148Y11409
X-37184Y13388
X-37228Y13919
X-36549Y14145
X-35959Y14864
X-35732Y15838
X-35723Y16370
X-36569Y16399
X-36559Y15789
X-38360Y15120
Y14588
X-38980
X-42809
Y15120
X-42809Y19844
Y20376
X-43980Y23201
Y23821
Y24441
Y25061
X-43990Y25681
X-44030Y26301
X-41461Y25248
X-41165Y24332
X-40280Y24352
X-39217Y24460
X-38587Y24441
X-37947Y24421
X-37957Y25110
X-38587
X-39217
X-39896Y25317
X-39787Y23643
X-36293Y23919
X-36274Y25750
X-36574Y21636
Y21015
X-35683Y21065
Y21596
X-35881Y20100
X-36569Y19391
X-37228Y19175
X-37199Y18634
X-38360Y19844
Y20376
X-38980Y19844
X-47298Y20100
X-47101Y21065
Y21596
X-47991Y21636
Y21015
X-47986Y19391
X-48646Y19175
X-48616Y18634
X-49778Y19844
Y20376
X-49364Y24421
X-49364Y25110
X-47691Y25750
X-47711Y23919
X-47986Y16399
X-47977Y15789
X-47150Y15838
X-47140Y16370
X-47376Y14864
X-47967Y14145
X-48646Y13919
X-48601Y13388
X-49778Y14588
Y15120
X-40565Y11409
X-51982
X-50398Y14588
X-54226
Y15120
X-54226Y19844
Y20376
X-55398Y23201
Y23821
Y24441
Y25061
X-55407Y25681
X-55447Y26301
X-52878Y25248
X-52583Y24332
X-51697Y24352
X-50634Y24460
X-50004Y24441
Y25110
X-50634
X-51313Y25317
X-51205Y23643
X-50398Y19844
X-9276Y31817
Y32124
Y34668
Y34959
X-752Y35445
X-506
X-260
X2260Y32482
X2482Y32270
X2732Y32020
X2171Y31154
X1925Y31212
X2004Y30967
X6177Y29736
X6443Y29746
X6709Y29736
X6650Y32591
X6394
X6138
X6187Y33240
X8057Y37098
X10577
X10213Y36508
T03
X-47809Y30543
X-47455
Y30897
X-47809
X-36392
Y30543
X-36037
Y30897
X-24974
Y30543
X-24620
Y30897
X-13557
Y30543
X-13203
Y30897
T04
X-53006Y4480
X-52612
Y4874
X-53006
X-41589
Y4480
X-41195
Y4874
X-30171
Y4480
X-29778
Y4874
X-18754
Y4480
X-18360
Y4874
T05
X10242Y29648
Y32246
T06
X-55673Y-1849
X-44256
X-32839
X-21421
X-55663Y27580
X-46028Y27580
X-34610
X-23193
X-11776
T07
X-61677Y-667
X-58606
X9317Y-667
X12309
X4189Y17148
X-8803Y17148
X-58606
Y34963
X-61677Y34963
X9317Y34963
X12309
T08
X-53646Y34401
X-52858
X-52071
X-42228Y34401
X-41441
X-40654
X-30811
X-30024
X-29236
X-19394
X-18606
X-17819
T09
X1738Y37187
X6215Y37187
T10
X8047Y7142
Y7142
X-3620Y33368
Y33368
X620
X620Y33368
X1856Y36222
X6096
X8047Y28382
Y28382
T11
X-1870Y-667
X-1870Y-667
X7370Y-667
M30
