G04*
G04 #@! TF.GenerationSoftware,Altium Limited,Altium Designer,19.1.5 (86)*
G04*
G04 Layer_Color=16711935*
%FSLAX25Y25*%
%MOIN*%
G70*
G01*
G75*
%ADD34R,0.05524X0.11430*%
%ADD35R,0.03950X0.10642*%
%ADD43R,0.10642X0.03950*%
%ADD74R,0.03950X0.10642*%
%ADD75R,0.05524X0.11430*%
%ADD76R,0.11430X0.05524*%
%ADD136C,0.04048*%
%ADD137C,0.20485*%
%ADD138C,0.26391*%
%ADD139C,0.00800*%
%ADD140R,0.28359X0.28359*%
%ADD141R,0.07493X0.07493*%
%ADD142C,0.08477*%
%ADD261R,0.25800X0.17335*%
G36*
X-602940Y-20055D02*
X-602888Y-20065D01*
X-602839Y-20082D01*
X-602792Y-20106D01*
X-602748Y-20135D01*
X-602709Y-20169D01*
X-602674Y-20209D01*
X-602645Y-20252D01*
X-602622Y-20299D01*
X-602605Y-20349D01*
X-602595Y-20400D01*
X-602591Y-20453D01*
Y-31870D01*
X-602595Y-31922D01*
X-602605Y-31974D01*
X-602622Y-32024D01*
X-602645Y-32070D01*
X-602674Y-32114D01*
X-602709Y-32153D01*
X-602748Y-32188D01*
X-602792Y-32217D01*
X-602839Y-32240D01*
X-602888Y-32257D01*
X-602940Y-32267D01*
X-602992Y-32271D01*
X-630551D01*
X-630604Y-32267D01*
X-630655Y-32257D01*
X-630705Y-32240D01*
X-630752Y-32217D01*
X-630795Y-32188D01*
X-630835Y-32153D01*
X-630869Y-32114D01*
X-630898Y-32070D01*
X-630922Y-32024D01*
X-630938Y-31974D01*
X-630949Y-31922D01*
X-630952Y-31870D01*
Y-20453D01*
X-630949Y-20400D01*
X-630938Y-20349D01*
X-630922Y-20299D01*
X-630898Y-20252D01*
X-630869Y-20209D01*
X-630835Y-20169D01*
X-630795Y-20135D01*
X-630752Y-20106D01*
X-630705Y-20082D01*
X-630655Y-20065D01*
X-630604Y-20055D01*
X-630551Y-20052D01*
X-602992D01*
X-602940Y-20055D01*
D02*
G37*
G36*
Y375220D02*
X-602888Y375210D01*
X-602839Y375193D01*
X-602792Y375170D01*
X-602748Y375141D01*
X-602709Y375106D01*
X-602674Y375067D01*
X-602645Y375023D01*
X-602622Y374976D01*
X-602605Y374927D01*
X-602595Y374875D01*
X-602591Y374823D01*
Y363405D01*
X-602595Y363353D01*
X-602605Y363302D01*
X-602622Y363252D01*
X-602645Y363205D01*
X-602674Y363161D01*
X-602709Y363122D01*
X-602748Y363088D01*
X-602792Y363058D01*
X-602839Y363035D01*
X-602888Y363018D01*
X-602940Y363008D01*
X-602992Y363005D01*
X-630551D01*
X-630604Y363008D01*
X-630655Y363018D01*
X-630705Y363035D01*
X-630752Y363058D01*
X-630795Y363088D01*
X-630835Y363122D01*
X-630869Y363161D01*
X-630898Y363205D01*
X-630922Y363252D01*
X-630938Y363302D01*
X-630949Y363353D01*
X-630952Y363405D01*
Y374823D01*
X-630949Y374875D01*
X-630938Y374927D01*
X-630922Y374976D01*
X-630898Y375023D01*
X-630869Y375067D01*
X-630835Y375106D01*
X-630795Y375141D01*
X-630752Y375170D01*
X-630705Y375193D01*
X-630655Y375210D01*
X-630604Y375220D01*
X-630551Y375224D01*
X-602992D01*
X-602940Y375220D01*
D02*
G37*
G36*
X136922Y-20055D02*
X136974Y-20065D01*
X137023Y-20082D01*
X137071Y-20106D01*
X137114Y-20135D01*
X137153Y-20169D01*
X137188Y-20209D01*
X137217Y-20252D01*
X137240Y-20299D01*
X137257Y-20349D01*
X137267Y-20400D01*
X137271Y-20453D01*
Y-31870D01*
X137267Y-31922D01*
X137257Y-31974D01*
X137240Y-32024D01*
X137217Y-32070D01*
X137188Y-32114D01*
X137153Y-32153D01*
X137114Y-32188D01*
X137071Y-32217D01*
X137023Y-32240D01*
X136974Y-32257D01*
X136922Y-32267D01*
X136870Y-32271D01*
X109311D01*
X109259Y-32267D01*
X109207Y-32257D01*
X109158Y-32240D01*
X109111Y-32217D01*
X109067Y-32188D01*
X109028Y-32153D01*
X108993Y-32114D01*
X108964Y-32070D01*
X108941Y-32024D01*
X108924Y-31974D01*
X108914Y-31922D01*
X108910Y-31870D01*
Y-20453D01*
X108914Y-20400D01*
X108924Y-20349D01*
X108941Y-20299D01*
X108964Y-20252D01*
X108993Y-20209D01*
X109028Y-20169D01*
X109067Y-20135D01*
X109111Y-20106D01*
X109158Y-20082D01*
X109207Y-20065D01*
X109259Y-20055D01*
X109311Y-20052D01*
X136870D01*
X136922Y-20055D01*
D02*
G37*
G36*
Y375220D02*
X136974Y375210D01*
X137023Y375193D01*
X137071Y375170D01*
X137114Y375141D01*
X137153Y375106D01*
X137188Y375067D01*
X137217Y375023D01*
X137240Y374976D01*
X137257Y374927D01*
X137267Y374875D01*
X137271Y374823D01*
Y363405D01*
X137267Y363353D01*
X137257Y363302D01*
X137240Y363252D01*
X137217Y363205D01*
X137188Y363161D01*
X137153Y363122D01*
X137114Y363088D01*
X137071Y363058D01*
X137023Y363035D01*
X136974Y363018D01*
X136922Y363008D01*
X136870Y363005D01*
X109311D01*
X109259Y363008D01*
X109207Y363018D01*
X109158Y363035D01*
X109111Y363058D01*
X109067Y363088D01*
X109028Y363122D01*
X108993Y363161D01*
X108964Y363205D01*
X108941Y363252D01*
X108924Y363302D01*
X108914Y363353D01*
X108910Y363405D01*
Y374823D01*
X108914Y374875D01*
X108924Y374927D01*
X108941Y374976D01*
X108964Y375023D01*
X108993Y375067D01*
X109028Y375106D01*
X109067Y375141D01*
X109111Y375170D01*
X109158Y375193D01*
X109207Y375210D01*
X109259Y375220D01*
X109311Y375224D01*
X136870D01*
X136922Y375220D01*
D02*
G37*
D34*
X74823Y-16319D02*
D03*
X-19823D02*
D03*
Y2972D02*
D03*
X74823D02*
D03*
D35*
X65000Y-15846D02*
D03*
X60000D02*
D03*
X55000D02*
D03*
X50000D02*
D03*
X45000D02*
D03*
X40000D02*
D03*
X35000D02*
D03*
X30000D02*
D03*
X25000D02*
D03*
X20000D02*
D03*
X15000D02*
D03*
X10000D02*
D03*
X5000D02*
D03*
X0D02*
D03*
X-5000D02*
D03*
X-10000D02*
D03*
X65000Y2500D02*
D03*
X60000D02*
D03*
X55000D02*
D03*
X50000D02*
D03*
X45000D02*
D03*
X40000D02*
D03*
X35000D02*
D03*
X30000D02*
D03*
X25000D02*
D03*
X20000D02*
D03*
X15000D02*
D03*
X10000D02*
D03*
X5000D02*
D03*
X0D02*
D03*
X-5000D02*
D03*
X-10000D02*
D03*
D43*
X71646Y80118D02*
D03*
Y85118D02*
D03*
Y90118D02*
D03*
Y95118D02*
D03*
Y100118D02*
D03*
Y105118D02*
D03*
Y110118D02*
D03*
Y115118D02*
D03*
Y120118D02*
D03*
Y125118D02*
D03*
Y130118D02*
D03*
Y135118D02*
D03*
Y140118D02*
D03*
Y145118D02*
D03*
Y150118D02*
D03*
Y155118D02*
D03*
Y160118D02*
D03*
Y165118D02*
D03*
Y170118D02*
D03*
Y175118D02*
D03*
Y180118D02*
D03*
Y185118D02*
D03*
Y190118D02*
D03*
Y195118D02*
D03*
Y200118D02*
D03*
Y205118D02*
D03*
Y210118D02*
D03*
Y215118D02*
D03*
Y220118D02*
D03*
Y225118D02*
D03*
Y230118D02*
D03*
Y235118D02*
D03*
Y240118D02*
D03*
Y245118D02*
D03*
Y250118D02*
D03*
Y255118D02*
D03*
Y260118D02*
D03*
Y265118D02*
D03*
Y270118D02*
D03*
Y275118D02*
D03*
X89646Y80118D02*
D03*
Y85118D02*
D03*
Y90118D02*
D03*
Y95118D02*
D03*
Y100118D02*
D03*
Y105118D02*
D03*
Y110118D02*
D03*
Y115118D02*
D03*
Y120118D02*
D03*
Y125118D02*
D03*
X89646Y130118D02*
D03*
X89646Y135118D02*
D03*
Y140118D02*
D03*
Y145118D02*
D03*
Y150118D02*
D03*
Y155118D02*
D03*
Y160118D02*
D03*
Y165118D02*
D03*
Y170118D02*
D03*
Y175118D02*
D03*
Y180118D02*
D03*
Y185118D02*
D03*
Y190118D02*
D03*
Y195118D02*
D03*
Y200118D02*
D03*
Y205118D02*
D03*
Y210118D02*
D03*
Y215118D02*
D03*
Y220118D02*
D03*
Y225118D02*
D03*
Y230118D02*
D03*
Y235118D02*
D03*
Y240118D02*
D03*
X89646Y245118D02*
D03*
X89646Y250118D02*
D03*
Y255118D02*
D03*
Y260118D02*
D03*
Y265118D02*
D03*
Y270118D02*
D03*
Y275118D02*
D03*
D74*
X-2500Y342854D02*
D03*
X-7500D02*
D03*
X-12500D02*
D03*
X-17500D02*
D03*
X-22500D02*
D03*
X-27500D02*
D03*
X-2500Y324508D02*
D03*
X-7500D02*
D03*
X-12500Y324508D02*
D03*
X-17500Y324508D02*
D03*
X-22500D02*
D03*
X-27500Y324508D02*
D03*
D75*
X7382Y343327D02*
D03*
X7382Y324036D02*
D03*
X-37382Y343327D02*
D03*
Y324036D02*
D03*
D76*
X70827Y70295D02*
D03*
X90118D02*
D03*
Y284941D02*
D03*
X70827D02*
D03*
D136*
X73701Y-6673D02*
D03*
X-18701D02*
D03*
X73701D02*
D03*
X-18701Y-6673D02*
D03*
X60965Y362224D02*
D03*
X18563D02*
D03*
X80472Y283819D02*
D03*
Y71417D02*
D03*
Y71417D02*
D03*
Y283819D02*
D03*
D137*
X-117756Y275805D02*
D03*
X-231929D02*
D03*
X-346102D02*
D03*
X-460276D02*
D03*
X-556732Y-18487D02*
D03*
X-442559D02*
D03*
X-214213D02*
D03*
X-328386D02*
D03*
X-556634Y275805D02*
D03*
D138*
X41890Y171476D02*
D03*
X-88032Y171476D02*
D03*
X-586063D02*
D03*
Y349626D02*
D03*
Y-6673D02*
D03*
X93169Y-6673D02*
D03*
Y349626D02*
D03*
D139*
Y371870D02*
D03*
X-186063Y344013D02*
D03*
X-193937D02*
D03*
X-178189D02*
D03*
X-300236D02*
D03*
X-308110D02*
D03*
X-292362D02*
D03*
X-414409D02*
D03*
X-422283D02*
D03*
X-406535D02*
D03*
X-528583Y344013D02*
D03*
X-536457D02*
D03*
X-520709D02*
D03*
X-36201Y333681D02*
D03*
X6201D02*
D03*
X6201Y333681D02*
D03*
X-36201Y333681D02*
D03*
D140*
X123091Y-6673D02*
D03*
Y349626D02*
D03*
X-616772Y-6673D02*
D03*
Y349626D02*
D03*
D141*
X17382Y371870D02*
D03*
X62146Y371870D02*
D03*
D142*
X102421Y296476D02*
D03*
Y322461D02*
D03*
D261*
X-203386Y374823D02*
D03*
X-317559D02*
D03*
X-431732D02*
D03*
X-545905D02*
D03*
M02*
